<?xml version="1.0" encoding="UTF-8"?>
<svg id="Layer_2" data-name="Layer 2" xmlns="http://www.w3.org/2000/svg" viewBox="0 0 1616.64 350.07">
  <defs>
    <style>
      .cls-1 {
        fill: #fff;
      }
    </style>
  </defs>
  <g id="Layer_1-2" data-name="Layer 1">
    <g>
      <path class="cls-1" d="M1596.95,64.47c-10.86,0-19.69-8.83-19.69-19.69s8.83-19.69,19.69-19.69,19.69,8.83,19.69,19.69-8.83,19.69-19.69,19.69ZM1596.95,27.46c-9.55,0-17.32,7.77-17.32,17.33s7.77,17.33,17.32,17.33,17.33-7.77,17.33-17.33-7.77-17.33-17.33-17.33Z"/>
      <path class="cls-1" d="M1589.72,53.08l2.45-16.36h3.75c1.35,0,2.39.05,3.13.16.74.11,1.34.29,1.8.54.77.41,1.38.97,1.81,1.7.44.73.66,1.52.66,2.4,0,1.13-.31,2.08-.94,2.85-.62.77-1.49,1.28-2.61,1.53.46.25.99.9,1.59,1.94.6,1.05,1.43,2.79,2.48,5.24h-3.79c-.3-.61-.69-1.42-1.17-2.42-.71-1.48-1.18-2.4-1.42-2.75-.33-.51-.71-.88-1.11-1.11-.41-.22-.91-.33-1.52-.33-.16,0-.28,0-.36,0s-.16,0-.23.02l-.98,6.58h-3.54ZM1594.66,43.83h.07c.58.04,1.01.06,1.26.06,1.29,0,2.24-.18,2.83-.55.59-.37.89-.94.89-1.73s-.27-1.3-.8-1.66c-.53-.36-1.34-.54-2.44-.54-.3,0-.54,0-.7.01-.16,0-.32.02-.47.04l-.64,4.37Z"/>
    </g>
    <g>
      <path class="cls-1" d="M77.69,201.71c-38.11-44.7-49.6-98.03-24.33-131.62,31.76-42.22,109.53-37.32,173.72,10.96,22.41,16.85,40.2,36.76,52.51,57.34-9.94-30.61-32.22-61.68-64.44-85.91C150.96,4.2,55.34-21.62,21.67,23.15c-30.81,40.96,3.57,130.55,56.02,178.56Z"/>
      <path class="cls-1" d="M201.9,148.36c38.11,44.7,49.6,98.03,24.33,131.62-31.76,42.22-109.53,37.32-173.72-10.96C30.1,252.17,12.31,232.26,0,211.68c9.94,30.61,32.22,61.68,64.44,85.91,64.19,48.27,159.81,74.1,193.48,29.32,30.81-40.96-3.57-130.55-56.02-178.56Z"/>
    </g>
    <path class="cls-1" d="M1211.11,60.15c-3.32,1.66-8.16,1.93-13.55,1.34-2.33-.25-4.56.99-5.7,3.04-1.83,3.29-3.69,6.23-5.34,8.53-2.74,3.81-8.74,3-10.15-1.48-.86-2.74-.76-6.27,0-10.16.53-2.74-.9-5.49-3.48-6.52-2.35-.94-4.47-1.9-6.25-2.8-4.15-2.11-4.21-8.13-.05-10.21,3.32-1.66,8.17-1.93,13.56-1.34,2.33.25,4.56-.99,5.71-3.04,1.83-3.28,3.67-6.21,5.31-8.5,2.74-3.82,8.75-3.01,10.16,1.47.86,2.74.76,6.26,0,10.14-.53,2.73.89,5.48,3.47,6.52,2.35.95,4.48,1.91,6.26,2.81,4.15,2.11,4.21,8.13.05,10.21Z"/>
    <path class="cls-1" d="M427.86,255.7c-22.6,0-45.68-7.06-55.1-14.6-2.83-2.35-4.71-5.18-4.71-8.48,0-5.18,5.65-27.78,8.48-27.78,4.71,0,19.31,19.78,54.16,19.78,25.43,0,30.61-7.06,30.61-12.24,0-8.48-18.37-12.24-39.09-19.31-24.02-8.48-50.86-21.66-50.86-51.33,0-45.21,48.98-48.04,68.29-48.04,15.07,0,32.97,3.77,40.97,7.06,2.83.94,4.24,2.83,4.24,6.12,0,3.77-5.65,27.31-9.89,27.31-3.77,0-20.72-8.95-43.33-8.95-27.31,0-30.61,4.71-30.61,9.89,0,5.65,4.71,7.54,38.62,18.84,26.37,8.95,51.33,23.08,51.33,51.8,0,42.85-40.5,49.92-63.1,49.92Z"/>
    <path class="cls-1" d="M631.77,132.78c1.41-3.77,3.3-9.42,3.3-13.66,0-7.06-5.18-11.77-18.37-11.77-1.88,0-3.3-1.88-3.3-3.77,0-3.77.94-7.54,4.24-7.54,5.65,0,17.9.47,22.6.47,6.59,0,10.83-.47,18.84-.47,3.3,0,5.18,2.35,5.18,6.12,0,1.41-2.35,6.59-2.83,8.01-19.31,55.1-44.27,102.66-69.23,162.94-18.37,44.27-32.02,50.39-62.16,50.39-11.77,0-25.9-1.41-25.9-9.42,0-6.12,4.24-31.55,8.95-31.55,3.77,0,13.19,7.54,27.78,7.54,24.96,0,32.02-10.36,44.27-41.91-11.77-25.9-39.09-89.95-55.57-126.21-5.18-11.3-7.53-13.66-20.25-14.6-2.83-.47-3.3-1.88-3.3-3.77,0-5.18,1.88-7.54,5.18-7.54,10.36,0,24.02.47,31.55.47,9.89,0,23.55-.47,27.31-.47,2.35,0,2.83,1.41,3.3,3.3,9.42,29.2,24.02,60.75,36.73,90.42l21.66-56.98Z"/>
    <path class="cls-1" d="M706.17,126.66c0-13.66-.47-19.31-17.9-19.31-1.88,0-2.35-1.88-2.35-2.83,0-3.3.94-8.48,3.3-8.48,10.36,0,17.42.47,32.02.47,13.19,0,21.66-.47,25.43-.47,2.35,0,2.83,1.41,2.83,3.3,0,3.77-.94,10.83-1.41,17.42,6.12-8.48,26.37-23.08,54.16-23.08,42.85,0,46.62,26.37,46.62,64.05,0,16.95-.94,37.2-.94,54.16,0,22.13.94,25.43,10.83,25.43,5.18,0,9.42-3.77,11.3-3.77,2.36,0,4.24,1.41,4.24,5.18,0,5.65-9.89,16.95-35.79,16.95-15.07,0-33.91-2.83-33.91-26.37,0-19.31.47-58.4.47-77.7s-4.71-24.02-16.95-24.02c-13.66,0-25.9,7.06-38.15,17.42v76.29c0,17.9,1.88,21.19,17.9,21.66,1.88,0,2.35.94,2.35,2.35,0,5.18-.94,8.48-3.3,8.48-2.83,0-30.14-.47-39.09-.47-14.6,0-33.44.47-40.5.47-1.88,0-1.88-.47-1.88-2.35,0-5.65,1.88-8.95,5.18-9.42,3.3-.47,8.95-1.41,15.54-3.3v-112.08Z"/>
    <path class="cls-1" d="M1025.45,238.74c0,6.12-1.88,9.89-10.36,13.18-6.59,2.83-22.13,3.77-34.85,3.77-1.14,0-2.48-.03-4-.11-.01,0-.02,0-.04,0-1.31.07-2.63.11-3.96.11-36.26,0-74.88-15.54-74.88-75.82,0-1.76.03-3.49.1-5.18v-.03c-.07-1.68-.1-3.4-.1-5.15,0-60.28,38.62-75.82,74.88-75.82,1.32,0,2.62.04,3.92.11h.04c1.54-.08,2.89-.11,4.04-.11,12.72,0,28.26.94,34.85,3.77,8.48,3.3,10.36,7.06,10.36,13.19,0,2.01-3.55,21.95-3.55,21.95-.48.42-1.02.65-1.63.65-4.7,0-16.95-8.95-39.55-8.95-5.92,0-10.96.29-15.22,1.04h-.01c-17.67,5.08-23.3,32.59-23.81,49.3-.01.02-.01.04,0,.06.5,16.71,3.14,43.72,23.8,49.33h.01c4.26.76,9.31,1.05,15.23,1.05,22.6,0,34.85-8.95,39.55-8.95.61,0,1.15.23,1.63.65,0,0,3.55,19.95,3.55,21.96Z"/>
    <path class="cls-1" d="M1065.48,60.73c0-13.66-.47-19.78-17.9-19.78-1.88,0-2.35-1.41-2.35-2.35,0-3.3.94-8.95,3.3-8.95,10.36,0,17.42.94,32.02.94,16.01,0,23.55-.94,27.31-.94,2.35,0,2.83,1.41,2.83,3.3,0,3.77-1.41,11.3-1.41,17.9v161.06c0,22.13.94,25.43,10.83,25.43,5.18,0,8.95-3.77,10.83-3.77,2.35,0,4.24,1.41,4.24,5.18,0,5.65-9.89,16.95-35.79,16.95-15.07,0-33.91-2.83-33.91-26.37V60.73Z"/>
    <path class="cls-1" d="M1174.26,126.66c0-13.66-.47-19.31-17.9-19.31-1.88,0-2.35-1.88-2.35-2.83,0-3.3.94-8.48,3.3-8.48,10.36,0,17.42.47,32.02.47s23.55-.47,27.31-.47c2.35,0,2.83,1.41,2.83,3.3,0,3.77-1.41,10.83-1.41,17.42v95.13c0,22.13.94,25.43,10.83,25.43,5.18,0,8.95-3.77,10.83-3.77,2.35,0,4.24,1.41,4.24,5.18,0,5.65-9.89,16.95-35.79,16.95-15.07,0-33.91-2.83-33.91-26.37v-102.66Z"/>
    <path class="cls-1" d="M1379.59,133.25c1.41-3.77,3.3-8.95,3.3-15.07,0-7.06-7.53-10.83-18.37-10.83-1.88,0-3.3-2.35-3.3-3.3,0-5.18,1.41-8.01,5.18-8.01,7.54,0,16.01.47,21.19.47,7.06,0,13.66-.47,18.84-.47,3.3,0,5.65,2.35,5.65,6.12,0,1.41-2.35,7.06-2.83,8.48-20.72,48.04-40.03,93.24-60.75,139.87-1.88,3.77-5.65,6.59-8.95,6.59-5.18,0-7.54-2.83-8.95-6.59-14.13-33.44-36.73-90.42-53.21-128.56-5.18-11.3-8.01-13.66-20.25-14.6-2.35-.47-3.3-1.88-3.3-3.3,0-5.65,1.88-8.01,5.18-8.01,12.24,0,24.49.47,31.55.47,2.36,0,23.55-.47,24.96-.47,2.83,0,3.3.47,5.65,7.06,9.42,27.79,24.49,62.16,36.26,89.95,6.59-16.01,16.95-44.74,22.13-59.81Z"/>
    <path class="cls-1" d="M1569.85,218.49c0,14.13,1.88,18.84,10.83,18.84,5.18,0,9.42-3.77,11.3-3.77,2.35,0,4.24,1.41,4.24,5.18,0,6.59-11.3,16.95-36.26,16.95-8.48,0-29.2-1.41-32.96-20.72-6.12,9.42-17.42,20.72-39.56,20.72-28.26,0-53.21-8.48-53.21-43.33,0-45.21,40.5-55.57,68.29-55.57,8.01,0,16.95,1.41,22.6,2.35v-11.77c0-21.19-13.19-24.49-28.26-24.49-14.13,0-33.91,4.71-45.68,14.6-2.35,1.88-3.77,2.35-6.59,2.35-.94,0-3.77-1.88-3.77-6.12,0-18.84,33.91-40.03,64.52-40.03,21.66,0,64.52,0,64.52,50.39v74.41ZM1525.11,182.7c-9.89-3.3-17.9-4.71-26.37-4.71-13.66,0-20.72,8.01-20.72,23.55,0,16.48,7.06,24.96,20.72,24.96,12.24,0,17.9-4.71,26.37-14.13v-29.67Z"/>
  </g>
</svg>