<svg width="1617" height="351" viewBox="0 0 1617 351" fill="none" xmlns="http://www.w3.org/2000/svg">
<g clip-path="url(#clip0_11_44)">
<path d="M1596.95 64.4701C1586.09 64.4701 1577.26 55.6401 1577.26 44.7801C1577.26 33.9201 1586.09 25.0901 1596.95 25.0901C1607.81 25.0901 1616.64 33.9201 1616.64 44.7801C1616.64 55.6401 1607.81 64.4701 1596.95 64.4701ZM1596.95 27.4601C1587.4 27.4601 1579.63 35.2301 1579.63 44.7901C1579.63 54.3501 1587.4 62.1201 1596.95 62.1201C1606.5 62.1201 1614.28 54.3501 1614.28 44.7901C1614.28 35.2301 1606.51 27.4601 1596.95 27.4601Z" fill="url(#paint0_linear_11_44)"/>
<path d="M1589.72 53.0801L1592.17 36.7201H1595.92C1597.27 36.7201 1598.31 36.7701 1599.05 36.8801C1599.79 36.9901 1600.39 37.1701 1600.85 37.4201C1601.62 37.8301 1602.23 38.3901 1602.66 39.1201C1603.1 39.8501 1603.32 40.6401 1603.32 41.5201C1603.32 42.6501 1603.01 43.6001 1602.38 44.3701C1601.76 45.1401 1600.89 45.6501 1599.77 45.9001C1600.23 46.1501 1600.76 46.8001 1601.36 47.8401C1601.96 48.8901 1602.79 50.6301 1603.84 53.0801H1600.05C1599.75 52.4701 1599.36 51.6601 1598.88 50.6601C1598.17 49.1801 1597.7 48.2601 1597.46 47.9101C1597.13 47.4001 1596.75 47.0301 1596.35 46.8001C1595.94 46.5801 1595.44 46.4701 1594.83 46.4701C1594.67 46.4701 1594.55 46.4701 1594.47 46.4701C1594.39 46.4701 1594.31 46.4701 1594.24 46.4901L1593.26 53.0701H1589.72V53.0801ZM1594.66 43.8301H1594.73C1595.31 43.8701 1595.74 43.8901 1595.99 43.8901C1597.28 43.8901 1598.23 43.7101 1598.82 43.3401C1599.41 42.9701 1599.71 42.4001 1599.71 41.6101C1599.71 40.8201 1599.44 40.3101 1598.91 39.9501C1598.38 39.5901 1597.57 39.4101 1596.47 39.4101C1596.17 39.4101 1595.93 39.4101 1595.77 39.4201C1595.61 39.4201 1595.45 39.4401 1595.3 39.4601L1594.66 43.8301Z" fill="#1F4E79"/>
<path d="M77.69 201.71C39.58 157.01 28.09 103.68 53.36 70.09C85.12 27.87 162.89 32.77 227.08 81.05C249.49 97.9 267.28 117.81 279.59 138.39C269.65 107.78 247.37 76.71 215.15 52.48C150.96 4.20004 55.34 -21.62 21.67 23.15C-9.14002 64.11 25.24 153.7 77.69 201.71Z" fill="url(#paint1_radial_11_44)"/>
<path d="M201.9 148.36C240.01 193.06 251.5 246.39 226.23 279.98C194.47 322.2 116.7 317.3 52.51 269.02C30.1 252.17 12.31 232.26 0 211.68C9.94 242.29 32.22 273.36 64.44 297.59C128.63 345.86 224.25 371.69 257.92 326.91C288.73 285.95 254.35 196.36 201.9 148.35V148.36Z" fill="url(#paint2_radial_11_44)"/>
<path d="M1211.11 60.15C1207.79 61.81 1202.95 62.08 1197.56 61.49C1195.23 61.24 1193 62.48 1191.86 64.53C1190.03 67.82 1188.17 70.76 1186.52 73.06C1183.78 76.87 1177.78 76.06 1176.37 71.58C1175.51 68.84 1175.61 65.31 1176.37 61.42C1176.9 58.68 1175.47 55.93 1172.89 54.9C1170.54 53.96 1168.42 53 1166.64 52.1C1162.49 49.99 1162.43 43.97 1166.59 41.89C1169.91 40.23 1174.76 39.96 1180.15 40.55C1182.48 40.8 1184.71 39.56 1185.86 37.51C1187.69 34.23 1189.53 31.3 1191.17 29.01C1193.91 25.19 1199.92 26 1201.33 30.48C1202.19 33.22 1202.09 36.74 1201.33 40.62C1200.8 43.35 1202.22 46.1 1204.8 47.14C1207.15 48.09 1209.28 49.05 1211.06 49.95C1215.21 52.06 1215.27 58.08 1211.11 60.16V60.15Z" fill="url(#paint3_linear_11_44)"/>
<path d="M427.86 255.7C405.26 255.7 382.18 248.64 372.76 241.1C369.93 238.75 368.05 235.92 368.05 232.62C368.05 227.44 373.7 204.84 376.53 204.84C381.24 204.84 395.84 224.62 430.69 224.62C456.12 224.62 461.3 217.56 461.3 212.38C461.3 203.9 442.93 200.14 422.21 193.07C398.19 184.59 371.35 171.41 371.35 141.74C371.35 96.5301 420.33 93.7001 439.64 93.7001C454.71 93.7001 472.61 97.4701 480.61 100.76C483.44 101.7 484.85 103.59 484.85 106.88C484.85 110.65 479.2 134.19 474.96 134.19C471.19 134.19 454.24 125.24 431.63 125.24C404.32 125.24 401.02 129.95 401.02 135.13C401.02 140.78 405.73 142.67 439.64 153.97C466.01 162.92 490.97 177.05 490.97 205.77C490.97 248.62 450.47 255.69 427.87 255.69L427.86 255.7Z" fill="url(#paint4_linear_11_44)"/>
<path d="M631.77 132.78C633.18 129.01 635.07 123.36 635.07 119.12C635.07 112.06 629.89 107.35 616.7 107.35C614.82 107.35 613.4 105.47 613.4 103.58C613.4 99.81 614.34 96.04 617.64 96.04C623.29 96.04 635.54 96.51 640.24 96.51C646.83 96.51 651.07 96.04 659.08 96.04C662.38 96.04 664.26 98.39 664.26 102.16C664.26 103.57 661.91 108.75 661.43 110.17C642.12 165.27 617.16 212.83 592.2 273.11C573.83 317.38 560.18 323.5 530.04 323.5C518.27 323.5 504.14 322.09 504.14 314.08C504.14 307.96 508.38 282.53 513.09 282.53C516.86 282.53 526.28 290.07 540.87 290.07C565.83 290.07 572.89 279.71 585.14 248.16C573.37 222.26 546.05 158.21 529.57 121.95C524.39 110.65 522.04 108.29 509.32 107.35C506.49 106.88 506.02 105.47 506.02 103.58C506.02 98.4 507.9 96.04 511.2 96.04C521.56 96.04 535.22 96.51 542.75 96.51C552.64 96.51 566.3 96.04 570.06 96.04C572.41 96.04 572.89 97.45 573.36 99.34C582.78 128.54 597.38 160.09 610.09 189.76L631.75 132.78H631.77Z" fill="url(#paint5_linear_11_44)"/>
<path d="M706.17 126.66C706.17 113 705.7 107.35 688.27 107.35C686.39 107.35 685.92 105.47 685.92 104.52C685.92 101.22 686.86 96.0401 689.22 96.0401C699.58 96.0401 706.64 96.5101 721.24 96.5101C734.43 96.5101 742.9 96.0401 746.67 96.0401C749.02 96.0401 749.5 97.45 749.5 99.34C749.5 103.11 748.56 110.17 748.09 116.76C754.21 108.28 774.46 93.6801 802.25 93.6801C845.1 93.6801 848.87 120.05 848.87 157.73C848.87 174.68 847.93 194.93 847.93 211.89C847.93 234.02 848.87 237.32 858.76 237.32C863.94 237.32 868.18 233.55 870.06 233.55C872.42 233.55 874.3 234.96 874.3 238.73C874.3 244.38 864.41 255.68 838.51 255.68C823.44 255.68 804.6 252.85 804.6 229.31C804.6 210 805.07 170.91 805.07 151.61C805.07 132.31 800.36 127.59 788.12 127.59C774.46 127.59 762.22 134.65 749.97 145.01V221.3C749.97 239.2 751.85 242.49 767.87 242.96C769.75 242.96 770.22 243.9 770.22 245.31C770.22 250.49 769.28 253.79 766.92 253.79C764.09 253.79 736.78 253.32 727.83 253.32C713.23 253.32 694.39 253.79 687.33 253.79C685.45 253.79 685.45 253.32 685.45 251.44C685.45 245.79 687.33 242.49 690.63 242.02C693.93 241.55 699.58 240.61 706.17 238.72V126.64V126.66Z" fill="url(#paint6_linear_11_44)"/>
<path d="M1025.45 238.74C1025.45 244.86 1023.57 248.63 1015.09 251.92C1008.5 254.75 992.96 255.69 980.24 255.69C979.1 255.69 977.76 255.66 976.24 255.58C976.23 255.58 976.22 255.58 976.2 255.58C974.89 255.65 973.57 255.69 972.24 255.69C935.98 255.69 897.36 240.15 897.36 179.87C897.36 178.11 897.39 176.38 897.46 174.69V174.66C897.39 172.98 897.36 171.26 897.36 169.51C897.36 109.23 935.98 93.6901 972.24 93.6901C973.56 93.6901 974.86 93.7301 976.16 93.8001H976.2C977.74 93.7201 979.09 93.6901 980.24 93.6901C992.96 93.6901 1008.5 94.6301 1015.09 97.4601C1023.57 100.76 1025.45 104.52 1025.45 110.65C1025.45 112.66 1021.9 132.6 1021.9 132.6C1021.42 133.02 1020.88 133.25 1020.27 133.25C1015.57 133.25 1003.32 124.3 980.72 124.3C974.8 124.3 969.76 124.59 965.5 125.34H965.49C947.82 130.42 942.19 157.93 941.68 174.64C941.67 174.66 941.67 174.68 941.68 174.7C942.18 191.41 944.82 218.42 965.48 224.03H965.49C969.75 224.79 974.8 225.08 980.72 225.08C1003.32 225.08 1015.57 216.13 1020.27 216.13C1020.88 216.13 1021.42 216.36 1021.9 216.78C1021.9 216.78 1025.45 236.73 1025.45 238.74Z" fill="url(#paint7_linear_11_44)"/>
<path d="M1065.48 60.73C1065.48 47.07 1065.01 40.95 1047.58 40.95C1045.7 40.95 1045.23 39.54 1045.23 38.6C1045.23 35.3 1046.17 29.65 1048.53 29.65C1058.89 29.65 1065.95 30.59 1080.55 30.59C1096.56 30.59 1104.1 29.65 1107.86 29.65C1110.21 29.65 1110.69 31.06 1110.69 32.95C1110.69 36.72 1109.28 44.25 1109.28 50.85V211.91C1109.28 234.04 1110.22 237.34 1120.11 237.34C1125.29 237.34 1129.06 233.57 1130.94 233.57C1133.29 233.57 1135.18 234.98 1135.18 238.75C1135.18 244.4 1125.29 255.7 1099.39 255.7C1084.32 255.7 1065.48 252.87 1065.48 229.33V60.73Z" fill="url(#paint8_linear_11_44)"/>
<path d="M1174.26 126.66C1174.26 113 1173.79 107.35 1156.36 107.35C1154.48 107.35 1154.01 105.47 1154.01 104.52C1154.01 101.22 1154.95 96.04 1157.31 96.04C1167.67 96.04 1174.73 96.51 1189.33 96.51C1203.93 96.51 1212.88 96.04 1216.64 96.04C1218.99 96.04 1219.47 97.45 1219.47 99.34C1219.47 103.11 1218.06 110.17 1218.06 116.76V211.89C1218.06 234.02 1219 237.32 1228.89 237.32C1234.07 237.32 1237.84 233.55 1239.72 233.55C1242.07 233.55 1243.96 234.96 1243.96 238.73C1243.96 244.38 1234.07 255.68 1208.17 255.68C1193.1 255.68 1174.26 252.85 1174.26 229.31V126.65V126.66Z" fill="url(#paint9_linear_11_44)"/>
<path d="M1379.59 133.25C1381 129.48 1382.89 124.3 1382.89 118.18C1382.89 111.12 1375.36 107.35 1364.52 107.35C1362.64 107.35 1361.22 105 1361.22 104.05C1361.22 98.87 1362.63 96.04 1366.4 96.04C1373.94 96.04 1382.41 96.51 1387.59 96.51C1394.65 96.51 1401.25 96.04 1406.43 96.04C1409.73 96.04 1412.08 98.39 1412.08 102.16C1412.08 103.57 1409.73 109.22 1409.25 110.64C1388.53 158.68 1369.22 203.88 1348.5 250.51C1346.62 254.28 1342.85 257.1 1339.55 257.1C1334.37 257.1 1332.01 254.27 1330.6 250.51C1316.47 217.07 1293.87 160.09 1277.39 121.95C1272.21 110.65 1269.38 108.29 1257.14 107.35C1254.79 106.88 1253.84 105.47 1253.84 104.05C1253.84 98.4 1255.72 96.04 1259.02 96.04C1271.26 96.04 1283.51 96.51 1290.57 96.51C1292.93 96.51 1314.12 96.04 1315.53 96.04C1318.36 96.04 1318.83 96.51 1321.18 103.1C1330.6 130.89 1345.67 165.26 1357.44 193.05C1364.03 177.04 1374.39 148.31 1379.57 133.24L1379.59 133.25Z" fill="url(#paint10_linear_11_44)"/>
<path d="M1569.85 218.49C1569.85 232.62 1571.73 237.33 1580.68 237.33C1585.86 237.33 1590.1 233.56 1591.98 233.56C1594.33 233.56 1596.22 234.97 1596.22 238.74C1596.22 245.33 1584.92 255.69 1559.96 255.69C1551.48 255.69 1530.76 254.28 1527 234.97C1520.88 244.39 1509.58 255.69 1487.44 255.69C1459.18 255.69 1434.23 247.21 1434.23 212.36C1434.23 167.15 1474.73 156.79 1502.52 156.79C1510.53 156.79 1519.47 158.2 1525.12 159.14V147.37C1525.12 126.18 1511.93 122.88 1496.86 122.88C1482.73 122.88 1462.95 127.59 1451.18 137.48C1448.83 139.36 1447.41 139.83 1444.59 139.83C1443.65 139.83 1440.82 137.95 1440.82 133.71C1440.82 114.87 1474.73 93.6801 1505.34 93.6801C1527 93.6801 1569.86 93.6801 1569.86 144.07V218.48L1569.85 218.49ZM1525.11 182.7C1515.22 179.4 1507.21 177.99 1498.74 177.99C1485.08 177.99 1478.02 186 1478.02 201.54C1478.02 218.02 1485.08 226.5 1498.74 226.5C1510.98 226.5 1516.64 221.79 1525.11 212.37V182.7Z" fill="url(#paint11_linear_11_44)"/>
</g>
<defs>
<linearGradient id="paint0_linear_11_44" x1="1596.95" y1="25.0901" x2="1596.95" y2="64.4701" gradientUnits="userSpaceOnUse">
<stop stop-color="#235078"/>
<stop offset="0.961538" stop-color="#265F94"/>
</linearGradient>
<radialGradient id="paint1_radial_11_44" cx="0" cy="0" r="1" gradientUnits="userSpaceOnUse" gradientTransform="translate(144.044 97.0899) rotate(-142.97) scale(209.535 150.126)">
<stop offset="0.379808" stop-color="#419CED"/>
<stop offset="0.740385" stop-color="#3074B1"/>
<stop offset="1" stop-color="#419CED"/>
</radialGradient>
<radialGradient id="paint2_radial_11_44" cx="0" cy="0" r="1" gradientUnits="userSpaceOnUse" gradientTransform="translate(134.013 245.445) rotate(-142.969) scale(209.537 150.128)">
<stop offset="0.379808" stop-color="#419CED"/>
<stop offset="0.740385" stop-color="#3074B1"/>
<stop offset="1" stop-color="#419CED"/>
</radialGradient>
<linearGradient id="paint3_linear_11_44" x1="1188.85" y1="26.5741" x2="1188.85" y2="75.4878" gradientUnits="userSpaceOnUse">
<stop offset="0.0384616" stop-color="#419CED"/>
<stop offset="1" stop-color="#2F71AD"/>
</linearGradient>
<linearGradient id="paint4_linear_11_44" x1="429.51" y1="93.7001" x2="429.51" y2="255.7" gradientUnits="userSpaceOnUse">
<stop offset="0.0384616" stop-color="#419CED"/>
<stop offset="1" stop-color="#2F71AD"/>
</linearGradient>
<linearGradient id="paint5_linear_11_44" x1="584.2" y1="96.04" x2="584.2" y2="323.5" gradientUnits="userSpaceOnUse">
<stop offset="0.0384616" stop-color="#419CED"/>
<stop offset="1" stop-color="#2F71AD"/>
</linearGradient>
<linearGradient id="paint6_linear_11_44" x1="779.875" y1="93.6801" x2="779.875" y2="255.68" gradientUnits="userSpaceOnUse">
<stop offset="0.0384616" stop-color="#419CED"/>
<stop offset="1" stop-color="#2F71AD"/>
</linearGradient>
<linearGradient id="paint7_linear_11_44" x1="961.405" y1="93.6901" x2="961.405" y2="255.69" gradientUnits="userSpaceOnUse">
<stop offset="0.0384616" stop-color="#419CED"/>
<stop offset="1" stop-color="#2F71AD"/>
</linearGradient>
<linearGradient id="paint8_linear_11_44" x1="1090.21" y1="29.65" x2="1090.21" y2="255.7" gradientUnits="userSpaceOnUse">
<stop offset="0.0384616" stop-color="#419CED"/>
<stop offset="1" stop-color="#2F71AD"/>
</linearGradient>
<linearGradient id="paint9_linear_11_44" x1="1198.98" y1="96.04" x2="1198.98" y2="255.68" gradientUnits="userSpaceOnUse">
<stop offset="0.0384616" stop-color="#419CED"/>
<stop offset="1" stop-color="#2F71AD"/>
</linearGradient>
<linearGradient id="paint10_linear_11_44" x1="1332.96" y1="96.04" x2="1332.96" y2="257.1" gradientUnits="userSpaceOnUse">
<stop offset="0.0384616" stop-color="#419CED"/>
<stop offset="1" stop-color="#2F71AD"/>
</linearGradient>
<linearGradient id="paint11_linear_11_44" x1="1515.22" y1="93.6801" x2="1515.22" y2="255.69" gradientUnits="userSpaceOnUse">
<stop offset="0.0384616" stop-color="#419CED"/>
<stop offset="1" stop-color="#2F71AD"/>
</linearGradient>
<clipPath id="clip0_11_44">
<rect width="1616.64" height="350.07" fill="white"/>
</clipPath>
</defs>
</svg>
